<svg width="497" height="434" viewBox="0 0 497 434" fill="none" xmlns="http://www.w3.org/2000/svg">
<path d="M322.427 432.556C338.34 427.582 352.618 422.501 369.794 412.856C387.509 402.908 466.203 355.566 476.436 273.631C479.117 251.175 476.892 228.405 469.915 206.892C466.751 197.62 460.19 178.996 443.631 160.578C423.36 138.019 400.23 129.275 386.667 124.33C366.214 116.977 344.506 113.752 322.799 114.842C310.499 115.244 288.789 116.145 264.111 126.925C248.012 133.955 238.004 141.975 223.256 153.959C199.891 172.965 196.816 180.876 155.941 220.12C144.719 230.891 135.494 239.38 121.412 247.742C111.649 253.539 103.756 256.78 89.1941 262.694C53.4018 277.234 43.211 280.178 31.4989 288.364C8.7211 304.295 10.1965 321.668 9.21718 325.408C6.67066 334.974 6.08112 344.955 7.48387 354.753C10.4706 374.405 21.0565 387.251 27.6274 395.026C36.6469 405.6 47.5765 414.383 59.8454 420.914C68.3626 425.408 77.1847 429.298 86.2465 432.557L322.427 432.556Z" fill="#90BAE7"/>
<path d="M372.949 418.667L372.469 417.813C395.873 404.666 473.037 355.378 483.3 273.157C486.068 249.84 483.758 226.201 476.529 203.861C473.614 195.311 466.786 175.289 449.259 155.789C427.793 131.907 403.287 122.97 390.121 118.168C368.878 110.523 346.328 107.172 323.779 108.31C311.611 108.705 288.965 109.442 262.826 120.854L262.434 119.957C288.745 108.469 312.385 107.7 323.746 107.331C346.42 106.186 369.096 109.557 390.456 117.249C403.702 122.079 428.358 131.07 449.988 155.135C467.649 174.784 474.522 194.938 477.457 203.545C484.731 226.026 487.056 249.815 484.272 273.278C473.952 355.955 396.455 405.463 372.949 418.667Z" fill="#D5EFC8"/>
<path d="M86.4774 93.3347L94.1343 133.655L109.761 139.47L125.385 133.655L133.042 93.3347H86.4774Z" fill="#FFBA55"/>
<path d="M150.905 76.9291C149.835 75.9072 148.489 75.2214 147.033 74.9567C145.578 74.692 144.076 74.8601 142.715 75.4401C141.97 75.8 141.307 76.3086 140.767 76.9346C140.226 77.5606 139.819 78.2907 139.572 79.0798C139.51 79.2997 138.791 82.0352 140.482 83.7946C141.277 84.6228 142.765 85.3994 143.791 84.8699C144.043 84.7452 144.259 84.5582 144.418 84.3265C144.577 84.0949 144.674 83.8263 144.701 83.5464C144.696 83.0822 144.366 82.9866 144.204 82.3884C144.023 81.7137 144.158 80.7755 144.618 80.5686C145.108 80.3485 145.964 80.9566 146.355 81.6439C147.084 82.9247 146.44 84.9071 145.335 86.0279C143.545 87.8438 140.602 87.3403 139.379 87.131C136.679 86.5766 134.259 85.0937 132.54 82.9399C131.253 81.5778 130.341 79.9061 129.893 78.0872C129.583 76.3273 129.658 74.5212 130.113 72.7933C130.812 69.4419 131.679 68.9453 133.202 64.6318C134.356 61.3618 134.929 59.6794 134.746 57.3528C134.692 55.3493 133.996 53.4162 132.76 51.8383C131.246 50.0818 129.113 48.9759 126.804 48.7503C125.369 48.6628 123.932 48.8943 122.597 49.4282C121.262 49.9621 120.062 50.7852 119.083 51.8383L116.325 48.7124C116.325 48.7124 119.634 47.4819 114.836 39.2102L115.746 38.507C115.746 28.4119 111.735 18.7302 104.596 11.5919C97.457 4.45362 87.7741 0.443359 77.6778 0.443359C67.5815 0.443359 57.8986 4.45362 50.7595 11.5919C43.6203 18.7302 39.6095 28.4119 39.6095 38.507L35.753 141.834H34.4256C34.034 141.834 33.6462 141.91 33.2842 142.059C32.9222 142.209 32.5932 142.428 32.3161 142.705C32.039 142.981 31.8191 143.31 31.6691 143.671C31.5191 144.033 31.4418 144.421 31.4418 144.812C31.4418 145.204 31.5191 145.591 31.6691 145.953C31.8191 146.315 32.039 146.643 32.3161 146.92C32.5932 147.196 32.9222 147.416 33.2842 147.565C33.6462 147.714 34.034 147.791 34.4256 147.79H35.5306L35.067 160.216H34.4256C34.034 160.215 33.6462 160.292 33.2842 160.441C32.9222 160.59 32.5932 160.81 32.3161 161.086C32.039 161.363 31.8191 161.691 31.6691 162.053C31.5191 162.415 31.4418 162.802 31.4418 163.194C31.4418 163.585 31.5191 163.973 31.6691 164.335C31.8191 164.696 32.039 165.025 32.3161 165.301C32.5932 165.578 32.9222 165.797 33.2842 165.947C33.6462 166.096 34.034 166.172 34.4256 166.172H34.8448L25.1825 425.057H24.6085C23.6139 425.057 22.66 425.452 21.9566 426.155C21.2533 426.859 20.8582 427.812 20.8582 428.807C20.8582 429.801 21.2533 430.755 21.9566 431.458C22.66 432.162 23.6139 432.557 24.6085 432.557H65.972C66.9667 432.557 67.9206 432.162 68.6239 431.458C69.3272 430.755 69.7223 429.801 69.7223 428.807C69.7223 427.812 69.3272 426.859 68.6239 426.155C67.9206 425.452 66.9667 425.057 65.972 425.057H65.0668L55.4045 166.172H55.8241C56.2157 166.172 56.6036 166.096 56.9656 165.947C57.3275 165.797 57.6565 165.578 57.9337 165.301C58.2108 165.025 58.4307 164.696 58.5807 164.335C58.7307 163.973 58.8079 163.585 58.8079 163.194C58.8079 162.802 58.7307 162.415 58.5807 162.053C58.4307 161.691 58.2108 161.363 57.9337 161.086C57.6565 160.81 57.3275 160.59 56.9656 160.441C56.6036 160.292 56.2157 160.215 55.8241 160.216H55.1823L54.7187 147.79H55.8241C56.2157 147.791 56.6036 147.714 56.9656 147.565C57.3275 147.416 57.6565 147.196 57.9337 146.92C58.2108 146.643 58.4307 146.315 58.5807 145.953C58.7307 145.591 58.8079 145.204 58.8079 144.812C58.8079 144.421 58.7307 144.033 58.5807 143.671C58.4307 143.31 58.2108 142.981 57.9337 142.705C57.6565 142.428 57.3275 142.209 56.9656 142.059C56.6036 141.91 56.2157 141.834 55.8241 141.834H54.4963L50.6398 38.507C50.6398 31.3369 53.4884 24.4605 58.559 19.3906C63.6296 14.3206 70.5069 11.4723 77.6778 11.4723C84.8487 11.4723 91.7259 14.3206 96.7965 19.3906C101.867 24.4605 104.716 31.3369 104.716 38.507L105.626 39.2102C100.828 47.4819 104.137 48.7124 104.137 48.7124L101.379 51.8383C100.4 50.7852 99.2002 49.9621 97.8652 49.4282C96.5301 48.8943 95.0933 48.6628 93.6581 48.7503C91.3495 48.9759 89.2165 50.0818 87.7018 51.8383C86.466 53.4162 85.77 55.3493 85.7162 57.3528C85.5333 59.6794 86.1065 61.3618 87.2606 64.6318C88.783 68.9453 89.6504 69.4419 90.349 72.7933C90.8044 74.5212 90.8796 76.3273 90.5696 78.0872C90.1208 79.9061 89.2088 81.5778 87.9224 82.9399C86.2031 85.0937 83.7832 86.5766 81.0835 87.131C79.86 87.3403 76.9173 87.8438 75.1271 86.0279C74.0223 84.9071 73.3781 82.9247 74.1069 81.6439C74.4981 80.9566 75.3544 80.3485 75.8441 80.5686C76.3044 80.7755 76.4395 81.7137 76.2577 82.3884C76.0966 82.9866 75.766 83.0822 75.7615 83.5464C75.7877 83.8263 75.885 84.0949 76.0443 84.3265C76.2036 84.5582 76.4195 84.7452 76.6715 84.8699C77.6969 85.3994 79.1847 84.6228 79.9805 83.7946C81.671 82.0352 80.9519 79.2997 80.8905 79.0798C80.6428 78.2907 80.2362 77.5606 79.6955 76.9346C79.1549 76.3086 78.4917 75.8 77.7469 75.4401C76.3858 74.8601 74.8844 74.692 73.4286 74.9567C71.9729 75.2214 70.6268 75.9072 69.557 76.9291C68.08 78.3435 67.1932 80.2644 67.075 82.3058C66.9094 86.9643 71.3283 90.1272 72.5351 90.991C76.7887 94.0357 81.4874 94.1659 84.9442 94.217C94.1976 94.3539 102.409 94.4077 110.231 94.3871C118.053 94.4077 126.264 94.3539 135.518 94.217C138.975 94.1659 143.673 94.0357 147.927 90.991C149.134 90.1272 153.553 86.9643 153.387 82.3058C153.269 80.2644 152.382 78.3435 150.905 76.9291Z" fill="#616161"/>
<path d="M86.4774 93.3347L94.1343 133.655L109.761 139.47L125.385 133.655L133.042 93.3347H86.4774ZM88.6964 95.1729H108.841V137.166L95.7465 132.294L88.6964 95.1729ZM123.773 132.294L110.68 137.166V95.1729H130.823L123.773 132.294Z" fill="#6B3832"/>
<path d="M109.744 144.811C111.891 144.811 113.632 143.071 113.632 140.924C113.632 138.777 111.891 137.036 109.744 137.036C107.597 137.036 105.856 138.777 105.856 140.924C105.856 143.071 107.597 144.811 109.744 144.811Z" fill="#6B3832"/>
<path d="M445.357 432.075L446.124 431.614C445.908 431.255 424.54 395.649 421.214 386.779L420.376 387.093C423.732 396.04 444.476 430.607 445.357 432.075Z" fill="#8B9D36"/>
<path d="M428.037 368.109C427.132 370.346 426.441 372.664 425.971 375.031C425.491 377.349 425.139 379.692 424.916 382.049C424.687 384.405 424.589 386.772 424.625 389.139C424.638 391.553 424.883 393.96 425.354 396.327C426.263 394.091 426.956 391.773 427.424 389.406C427.905 387.088 428.256 384.744 428.475 382.387C428.7 380.03 428.796 377.663 428.761 375.296C428.746 372.883 428.504 370.476 428.037 368.109ZM435.923 378.89C434.822 380.974 433.924 383.16 433.243 385.417C432.556 387.623 431.994 389.865 431.559 392.134C431.119 394.402 430.808 396.694 430.63 398.997C430.426 401.346 430.451 403.709 430.706 406.053C431.812 403.97 432.711 401.785 433.391 399.527C434.079 397.322 434.639 395.078 435.071 392.809C435.507 390.54 435.816 388.248 435.995 385.945C436.198 383.597 436.174 381.234 435.923 378.89ZM440.268 391.442C439.299 393.379 438.534 395.412 437.987 397.508C437.435 399.55 437.008 401.624 436.71 403.718C436.407 405.811 436.234 407.921 436.194 410.036C436.131 412.202 436.298 414.368 436.692 416.499C437.666 414.564 438.432 412.53 438.978 410.433C439.531 408.392 439.956 406.318 440.25 404.223C440.549 402.129 440.72 400.019 440.761 397.904C440.823 395.739 440.658 393.573 440.268 391.442ZM445.74 403.97C444.767 405.593 443.99 407.326 443.427 409.133C442.864 410.878 442.425 412.661 442.114 414.468C441.797 416.274 441.611 418.101 441.557 419.934C441.481 421.825 441.633 423.719 442.01 425.574C442.988 423.953 443.766 422.22 444.328 420.412C444.892 418.667 445.33 416.884 445.637 415.076C445.95 413.269 446.134 411.443 446.189 409.61C446.264 407.719 446.114 405.826 445.74 403.97ZM450.569 411.801C449.575 413.209 448.755 414.73 448.126 416.334C447.51 417.865 446.997 419.436 446.591 421.036C446.188 422.624 445.879 424.234 445.664 425.858C445.563 426.677 445.471 427.491 445.41 428.32C445.378 429.166 445.288 430.008 445.14 430.841C445.347 430.731 445.545 430.605 445.734 430.467L446.216 429.984C446.523 429.654 446.805 429.302 447.059 428.929C447.548 428.212 447.982 427.458 448.355 426.674C449.08 425.15 449.65 423.556 450.056 421.918C450.47 420.294 450.738 418.637 450.857 416.965C451.001 415.239 450.904 413.501 450.569 411.801ZM423.348 392.472C421.725 390.692 419.899 389.109 417.908 387.755C415.989 386.422 413.98 385.224 411.895 384.17C409.813 383.11 407.659 382.198 405.449 381.442C403.178 380.637 400.82 380.105 398.424 379.856C400.043 381.639 401.868 383.224 403.861 384.578C405.779 385.911 407.789 387.107 409.877 388.157C411.961 389.213 414.115 390.123 416.326 390.88C418.596 391.683 420.953 392.217 423.348 392.472ZM428.691 402.451C426.616 400.754 424.367 399.282 421.982 398.059C419.665 396.844 417.275 395.774 414.826 394.855C412.379 393.929 409.877 393.159 407.333 392.549C404.733 391.897 402.07 391.526 399.39 391.442C401.462 393.143 403.71 394.617 406.097 395.839C408.413 397.055 410.803 398.124 413.254 399.038C415.703 399.959 418.206 400.727 420.75 401.338C423.35 401.988 426.012 402.361 428.691 402.451ZM434.981 413.543C433.133 411.903 431.104 410.481 428.933 409.303C426.834 408.137 424.66 407.116 422.423 406.244C420.19 405.366 417.898 404.643 415.565 404.08C413.17 403.475 410.712 403.149 408.242 403.109C410.086 404.753 412.115 406.177 414.287 407.354C416.385 408.52 418.561 409.54 420.799 410.407C423.034 411.281 425.326 412.002 427.659 412.566C430.054 413.17 432.511 413.497 434.981 413.543ZM439.952 422.08C438.342 420.686 436.556 419.51 434.64 418.582C432.806 417.67 430.903 416.905 428.949 416.294C426.996 415.677 424.997 415.218 422.971 414.922C420.867 414.59 418.728 414.54 416.61 414.772C418.217 416.171 420.003 417.349 421.92 418.276C423.754 419.189 425.657 419.952 427.613 420.558C429.567 421.171 431.567 421.628 433.593 421.924C435.696 422.255 437.834 422.307 439.952 422.08Z" fill="#8B9D36"/>
<path d="M443.875 429.741C442.106 428.043 440.147 426.554 438.037 425.305C435.999 424.072 433.88 422.978 431.694 422.033C429.511 421.082 427.264 420.283 424.97 419.642C422.614 418.957 420.187 418.549 417.737 418.426C419.503 420.129 421.462 421.619 423.573 422.868C425.61 424.102 427.73 425.194 429.918 426.134C432.104 427.081 434.351 427.878 436.645 428.519C439 429.203 441.426 429.613 443.875 429.741ZM421.611 388.224C421.938 385.84 421.879 383.419 421.437 381.054C421.048 378.824 420.436 376.639 419.61 374.531C418.792 372.421 417.76 370.4 416.531 368.499C415.25 366.461 413.646 364.644 411.782 363.12C411.449 365.504 411.505 367.927 411.948 370.293C412.336 372.523 412.951 374.707 413.783 376.812C414.608 378.921 415.642 380.94 416.871 382.842C418.152 384.878 419.753 386.695 421.611 388.224Z" fill="#8B9D36"/>
<path d="M447.662 432.557L448.555 432.541C448.516 430.099 447.455 372.505 435.933 354.264L435.177 354.742C446.566 372.772 447.652 431.961 447.662 432.557Z" fill="#50661A"/>
<path d="M439.257 362.491C438.902 359.819 438.813 357.119 438.989 354.429C439.137 351.808 439.428 349.198 439.86 346.608C440.278 344.029 440.846 341.476 441.513 338.944C442.181 336.395 443.023 333.943 443.923 331.331C444.178 331.979 444.371 332.65 444.5 333.335C444.644 334.007 444.75 334.687 444.815 335.372C444.955 336.715 445.016 338.065 444.997 339.415C444.957 342.071 444.714 344.72 444.269 347.339C443.836 349.95 443.223 352.528 442.436 355.054C441.657 357.644 440.59 360.138 439.257 362.491ZM425.094 326.02C427.074 327.93 428.773 330.112 430.138 332.5C431.467 334.765 432.598 337.142 433.518 339.602C434.446 342.059 435.156 344.594 435.64 347.175C436.18 349.874 436.33 352.636 436.082 355.377C434.096 353.472 432.395 351.291 431.031 348.9C429.7 346.636 428.572 344.258 427.658 341.795C426.736 339.335 426.029 336.8 425.544 334.219C425.005 331.521 424.854 328.761 425.094 326.02ZM415.598 340.699C417.948 342.586 420.167 344.631 422.24 346.818C424.293 348.946 426.252 351.121 428.169 353.308L433.863 359.842C434.818 360.912 435.783 361.966 436.803 362.965C437.811 364.023 438.985 364.91 440.278 365.59C439.489 365.728 438.681 365.707 437.9 365.529C437.112 365.372 436.344 365.131 435.609 364.809C434.169 364.176 432.801 363.392 431.528 362.469C429.057 360.66 426.802 358.574 424.806 356.251C422.821 353.976 421.034 351.535 419.465 348.955C417.849 346.368 416.551 343.596 415.598 340.699ZM415.598 355.377C418.495 356.823 421.258 358.522 423.855 360.455C426.426 362.334 428.898 364.343 431.264 366.475C433.634 368.601 435.892 370.848 438.03 373.209C440.224 375.589 442.202 378.161 443.939 380.894C441.039 379.452 438.274 377.754 435.677 375.821C433.106 373.942 430.635 371.931 428.273 369.796C425.906 367.666 423.649 365.417 421.511 363.058C419.318 360.677 417.339 358.106 415.598 355.377ZM416.564 366.894C419.482 368.252 422.274 369.866 424.906 371.717C427.51 373.517 430.019 375.449 432.425 377.505C434.835 379.556 437.137 381.732 439.32 384.023C441.561 386.334 443.59 388.841 445.382 391.514C442.462 390.161 439.668 388.549 437.036 386.695C434.432 384.897 431.924 382.963 429.522 380.903C427.114 378.848 424.814 376.671 422.631 374.38C420.391 372.069 418.36 369.564 416.564 366.894ZM417.208 379.204C420.111 380.296 422.909 381.653 425.564 383.257C428.184 384.811 430.721 386.503 433.161 388.327C435.606 390.144 437.95 392.093 440.184 394.165C442.478 396.254 444.573 398.552 446.44 401.03C443.534 399.943 440.736 398.588 438.081 396.982C435.459 395.429 432.924 393.735 430.487 391.907C428.045 390.086 425.702 388.135 423.468 386.064C421.175 383.974 419.079 381.678 417.208 379.204ZM416.564 388.135C419.602 389.357 422.527 390.842 425.307 392.574C428.055 394.255 430.717 396.073 433.283 398.022C435.853 399.966 438.321 402.039 440.678 404.236C443.094 406.447 445.31 408.867 447.299 411.469C444.259 410.251 441.332 408.768 438.553 407.035C435.804 405.355 433.143 403.535 430.58 401.581C428.013 399.634 425.546 397.559 423.189 395.363C420.774 393.151 418.557 390.733 416.564 388.135ZM414.311 396.503C417.474 397.974 420.528 399.669 423.45 401.574C426.351 403.432 429.158 405.395 431.895 407.444C434.64 409.481 437.309 411.605 439.93 413.8C442.579 415.976 445.081 418.242 447.822 420.486C446.062 420.197 444.344 419.695 442.704 418.993C441.081 418.314 439.495 417.551 437.953 416.706C434.919 415.008 432.001 413.11 429.22 411.024C426.45 408.947 423.801 406.712 421.287 404.33C418.726 401.941 416.391 399.321 414.311 396.503ZM411.575 405.193C414.993 406.521 418.31 408.097 421.499 409.908C424.668 411.673 427.743 413.569 430.748 415.564C433.754 417.558 436.687 419.656 439.547 421.856C440.977 422.959 442.393 424.082 443.795 425.224C445.152 426.427 446.593 427.53 448.108 428.526C447.158 428.527 446.215 428.365 445.32 428.047C444.421 427.781 443.549 427.458 442.686 427.121C440.966 426.438 439.304 425.657 437.673 424.829C434.436 423.162 431.298 421.311 428.273 419.284C425.249 417.273 422.329 415.109 419.524 412.801C416.668 410.489 414.01 407.944 411.575 405.193ZM442.031 372.714C442.176 369.811 442.606 366.929 443.313 364.109C443.982 361.341 444.808 358.613 445.787 355.939C446.76 353.263 447.887 350.645 449.163 348.099C450.44 345.487 451.974 343.008 453.741 340.699C453.601 343.603 453.173 346.486 452.464 349.306C451.796 352.074 450.968 354.802 449.984 357.474C449.007 360.149 447.878 362.766 446.603 365.312C445.325 367.923 443.793 370.402 442.031 372.714ZM443.939 382.763C444.487 379.875 445.314 377.047 446.409 374.318C447.457 371.635 448.657 369.013 450.001 366.465C451.339 363.913 452.822 361.441 454.443 359.059C456.074 356.613 457.941 354.332 460.017 352.25C459.474 355.14 458.649 357.969 457.553 360.697C456.505 363.381 455.303 366.002 453.955 368.548C452.613 371.097 451.128 373.569 449.508 375.951C447.876 378.396 446.011 380.677 443.939 382.763ZM445.382 392.48C446.323 389.548 447.533 386.71 448.998 384.002C450.413 381.331 451.971 378.738 453.665 376.235C455.352 373.727 457.176 371.313 459.127 369.004C461.093 366.634 463.277 364.453 465.65 362.491C464.715 365.425 463.506 368.265 462.04 370.972C460.625 373.644 459.066 376.236 457.368 378.737C455.676 381.242 453.851 383.654 451.901 385.963C449.934 388.332 447.752 390.514 445.382 392.48ZM446.44 403.201C447.915 400.032 449.646 396.989 451.617 394.102C453.541 391.231 455.594 388.465 457.776 385.805C459.95 383.14 462.251 380.577 464.677 378.117C467.114 375.61 469.754 373.309 472.571 371.239C471.102 374.411 469.372 377.455 467.399 380.341C465.475 383.212 463.421 385.976 461.236 388.634C459.056 391.296 456.754 393.857 454.329 396.318C451.892 398.824 449.253 401.125 446.44 403.201ZM447.299 414.317C449.107 411.305 451.157 408.445 453.429 405.765C455.653 403.095 457.994 400.544 460.453 398.112C462.905 395.673 465.471 393.349 468.153 391.14C470.849 388.886 473.726 386.858 476.755 385.078C474.952 388.094 472.903 390.956 470.63 393.635C468.406 396.304 466.063 398.853 463.602 401.283C461.145 403.718 458.577 406.04 455.897 408.25C453.201 410.502 450.325 412.531 447.299 414.317ZM447.822 421.446C449.827 418.847 452.056 416.427 454.482 414.215C456.851 412.019 459.329 409.944 461.906 407.997C464.479 406.043 467.151 404.223 469.91 402.544C472.7 400.811 475.637 399.329 478.687 398.112C476.685 400.715 474.457 403.136 472.03 405.347C469.662 407.544 467.182 409.618 464.602 411.561C462.026 413.51 459.353 415.329 456.594 417.009C453.804 418.74 450.869 420.224 447.822 421.446ZM448.108 427.4C450.514 425.028 453.117 422.864 455.889 420.931C458.609 418.997 461.413 417.208 464.299 415.564C467.181 413.911 470.144 412.4 473.187 411.029C476.257 409.618 479.444 408.473 482.71 407.606C480.307 409.983 477.705 412.148 474.932 414.08C472.211 416.014 469.407 417.801 466.519 419.442C463.634 421.09 460.67 422.599 457.628 423.971C454.557 425.381 451.373 426.528 448.108 427.4ZM447.886 431.262C450.773 429.27 453.817 427.517 456.989 426.019C460.112 424.511 463.296 423.168 466.533 421.966C469.769 420.762 473.061 419.711 476.41 418.812C479.792 417.878 483.245 417.225 486.734 416.859C483.85 418.856 480.806 420.612 477.633 422.108C474.509 423.615 471.327 424.964 468.086 426.155C464.848 427.353 461.558 428.41 458.207 429.303C454.825 430.235 451.374 430.89 447.886 431.262Z" fill="#50661A"/>
<path d="M449.45 430.954C450.331 429.486 471.075 394.921 474.431 385.972L473.593 385.659C470.267 394.529 448.899 430.135 448.683 430.493L449.45 430.954Z" fill="#5E7C24"/>
<path d="M466.815 367.13C467.72 369.367 468.411 371.684 468.881 374.052C469.361 376.37 469.713 378.713 469.936 381.07C470.166 383.426 470.263 385.793 470.227 388.16C470.214 390.574 469.97 392.981 469.498 395.348C468.589 393.112 467.896 390.794 467.428 388.426C466.947 386.108 466.596 383.765 466.377 381.408C466.152 379.051 466.057 376.684 466.091 374.317C466.106 371.904 466.348 369.497 466.815 367.13ZM458.929 377.911C460.03 379.995 460.928 382.181 461.609 384.438C462.296 386.643 462.858 388.886 463.293 391.155C463.734 393.423 464.044 395.715 464.223 398.018C464.427 400.367 464.401 402.73 464.146 405.074C463.04 402.991 462.141 400.806 461.461 398.548C460.773 396.342 460.213 394.099 459.782 391.829C459.345 389.561 459.036 387.269 458.857 384.966C458.654 382.617 458.678 380.255 458.929 377.911ZM454.584 390.463C455.554 392.4 456.318 394.433 456.865 396.529C457.418 398.571 457.844 400.645 458.142 402.739C458.446 404.832 458.618 406.942 458.658 409.057C458.721 411.223 458.554 413.389 458.161 415.52C457.187 413.584 456.42 411.551 455.874 409.454C455.321 407.413 454.897 405.339 454.603 403.244C454.303 401.15 454.132 399.04 454.091 396.925C454.029 394.76 454.195 392.594 454.584 390.463ZM449.112 402.991C450.085 404.614 450.862 406.347 451.425 408.154C451.989 409.899 452.427 411.682 452.738 413.489C453.055 415.295 453.241 417.122 453.295 418.955C453.372 420.846 453.22 422.74 452.842 424.595C451.865 422.974 451.086 421.241 450.524 419.433C449.96 417.688 449.523 415.905 449.215 414.097C448.902 412.29 448.718 410.464 448.663 408.631C448.588 406.74 448.739 404.847 449.112 402.991ZM444.284 410.822C445.277 412.229 446.097 413.751 446.726 415.355C447.342 416.886 447.855 418.457 448.261 420.057C448.664 421.645 448.973 423.255 449.189 424.879C449.289 425.698 449.381 426.512 449.442 427.341C449.474 428.187 449.564 429.029 449.712 429.862C449.506 429.752 449.307 429.626 449.118 429.488L448.636 429.005C448.329 428.675 448.047 428.323 447.793 427.95C447.304 427.233 446.871 426.479 446.497 425.695C445.772 424.171 445.202 422.577 444.796 420.939C444.382 419.315 444.115 417.657 443.996 415.986C443.851 414.26 443.948 412.522 444.284 410.822ZM471.505 391.492C473.127 389.713 474.953 388.13 476.944 386.776C478.863 385.443 480.872 384.245 482.957 383.191C485.039 382.131 487.193 381.219 489.403 380.463C491.674 379.658 494.032 379.126 496.428 378.877C494.809 380.66 492.984 382.245 490.991 383.598C489.073 384.932 487.063 386.128 484.976 387.178C482.892 388.234 480.737 389.144 478.527 389.901C476.256 390.704 473.899 391.238 471.505 391.492ZM466.161 401.471C468.236 399.775 470.485 398.303 472.871 397.08C475.187 395.865 477.577 394.795 480.026 393.876C482.473 392.95 484.975 392.18 487.519 391.57C490.12 390.918 492.783 390.547 495.462 390.463C493.39 392.164 491.142 393.638 488.756 394.86C486.439 396.076 484.049 397.144 481.598 398.059C479.15 398.98 476.646 399.748 474.103 400.359C471.502 401.009 468.84 401.382 466.161 401.471ZM459.872 412.563C461.719 410.924 463.748 409.501 465.92 408.324C468.018 407.158 470.193 406.137 472.429 405.265C474.663 404.387 476.954 403.664 479.287 403.101C481.683 402.495 484.14 402.17 486.611 402.13C484.766 403.774 482.737 405.198 480.565 406.375C478.467 407.541 476.291 408.561 474.053 409.428C471.818 410.301 469.526 411.023 467.193 411.587C464.798 412.191 462.341 412.518 459.872 412.563ZM454.901 421.101C456.51 419.707 458.296 418.531 460.213 417.603C462.046 416.691 463.949 415.926 465.903 415.315C467.856 414.697 469.855 414.239 471.881 413.943C473.986 413.611 476.124 413.561 478.242 413.793C476.635 415.192 474.85 416.37 472.932 417.297C471.099 418.21 469.195 418.973 467.239 419.579C465.285 420.192 463.286 420.649 461.26 420.945C459.156 421.276 457.018 421.328 454.901 421.101Z" fill="#5E7C24"/>
<path d="M450.977 428.762C452.746 427.064 454.705 425.575 456.816 424.326C458.853 423.092 460.972 421.999 463.158 421.054C465.341 420.102 467.588 419.303 469.882 418.663C472.238 417.978 474.665 417.57 477.115 417.447C475.349 419.149 473.39 420.64 471.279 421.889C469.242 423.123 467.122 424.214 464.934 425.155C462.749 426.102 460.501 426.899 458.207 427.54C455.852 428.224 453.426 428.634 450.977 428.762ZM473.241 387.245C472.914 384.861 472.973 382.44 473.415 380.075C473.804 377.845 474.416 375.66 475.242 373.552C476.06 371.442 477.092 369.421 478.321 367.52C479.603 365.482 481.206 363.665 483.07 362.141C483.404 364.525 483.348 366.948 482.904 369.314C482.516 371.544 481.901 373.728 481.069 375.833C480.245 377.941 479.21 379.961 477.982 381.863C476.7 383.899 475.099 385.716 473.241 387.245Z" fill="#5E7C24"/>
<path d="M51.6429 432.075L50.8759 431.614C51.092 431.255 72.46 395.649 75.7861 386.779L76.6238 387.093C73.2681 396.04 52.5236 430.607 51.6429 432.075Z" fill="#8B9D36"/>
<path d="M68.963 368.109C69.8675 370.346 70.559 372.664 71.0285 375.031C71.5085 377.349 71.8609 379.692 72.0841 382.049C72.3133 384.405 72.4104 386.772 72.3749 389.139C72.3614 391.553 72.1172 393.96 71.6458 396.327C70.737 394.091 70.0437 391.773 69.5755 389.406C69.0947 387.088 68.7439 384.744 68.5247 382.387C68.2997 380.03 68.2043 377.663 68.2387 375.296C68.2536 372.883 68.4961 370.476 68.963 368.109ZM61.0767 378.89C62.178 380.974 63.0756 383.16 63.7568 385.417C64.4438 387.623 65.006 389.865 65.4407 392.134C65.8812 394.402 66.1915 396.694 66.3702 398.997C66.5742 401.346 66.5485 403.709 66.2933 406.053C65.188 403.97 64.2887 401.785 63.6084 399.527C62.921 397.322 62.3604 395.078 61.9293 392.809C61.4927 390.54 61.184 388.248 61.0046 385.945C60.8018 383.597 60.826 381.234 61.0767 378.89ZM56.7315 391.442C57.7013 393.379 58.466 395.412 59.013 397.508C59.5653 399.55 59.9916 401.624 60.2895 403.718C60.5932 405.811 60.7656 407.921 60.806 410.036C60.8687 412.202 60.7019 414.368 60.3083 416.499C59.3342 414.564 58.5678 412.53 58.022 410.433C57.4689 408.392 57.0441 406.318 56.7502 404.223C56.4504 402.129 56.2795 400.019 56.2385 397.904C56.177 395.739 56.3422 393.573 56.7315 391.442ZM51.2594 403.97C52.2331 405.593 53.0097 407.326 53.5728 409.133C54.1362 410.878 54.575 412.661 54.8861 414.468C55.2031 416.274 55.3891 418.101 55.4427 419.934C55.5193 421.825 55.3673 423.719 54.99 425.574C54.0121 423.953 53.2338 422.22 52.6717 420.412C52.1077 418.667 51.6703 416.884 51.3629 415.076C51.0501 413.269 50.8657 411.443 50.8111 409.61C50.7357 407.719 50.8862 405.826 51.2594 403.97ZM46.4314 411.801C47.4247 413.209 48.2447 414.73 48.8736 416.334C49.4899 417.865 50.0028 419.436 50.409 421.036C50.8114 422.624 51.121 424.234 51.3363 425.858C51.4367 426.677 51.5288 427.491 51.5899 428.32C51.6216 429.166 51.7117 430.008 51.8597 430.841C51.6532 430.731 51.4548 430.605 51.266 430.467L50.784 429.984C50.4768 429.654 50.1949 429.302 49.941 428.929C49.4516 428.212 49.0182 427.458 48.6448 426.674C47.9194 425.15 47.3496 423.556 46.9439 421.918C46.5301 420.294 46.2622 418.637 46.1432 416.965C45.9988 415.239 46.0958 413.501 46.4314 411.801ZM73.6523 392.472C75.2749 390.692 77.1006 389.109 79.092 387.755C81.0107 386.422 83.0197 385.224 85.1045 384.17C87.1863 383.11 89.3405 382.198 91.551 381.442C93.8216 380.637 96.1796 380.105 98.5756 379.856C96.9566 381.639 95.1316 383.224 93.1389 384.578C91.2206 385.911 89.2104 387.107 87.1233 388.157C85.0393 389.213 82.8844 390.123 80.6742 390.88C78.4038 391.683 76.0471 392.217 73.6523 392.472ZM68.309 402.451C70.3841 400.754 72.633 399.282 75.0183 398.059C77.3348 396.844 79.7246 395.774 82.1738 394.855C84.6204 393.929 87.123 393.159 89.6668 392.549C92.2673 391.897 94.9302 391.526 97.6098 391.442C95.5378 393.143 93.2894 394.617 90.9031 395.839C88.5871 397.055 86.1964 398.124 83.7455 399.038C81.2971 399.959 78.7939 400.727 76.2503 401.338C73.65 401.988 70.988 402.361 68.309 402.451ZM62.0193 413.543C63.8668 411.903 65.896 410.481 68.0672 409.303C70.1654 408.137 72.3402 407.116 74.5765 406.244C76.8101 405.366 79.1016 404.643 81.4347 404.08C83.8302 403.475 86.2878 403.149 88.7583 403.109C86.9137 404.753 84.885 406.177 82.7126 407.354C80.6148 408.52 78.4391 409.54 76.201 410.407C73.9656 411.281 71.6735 412.002 69.3407 412.566C66.9455 413.17 64.489 413.497 62.0193 413.543ZM57.0484 422.08C58.6578 420.686 60.4437 419.51 62.3602 418.582C64.1937 417.67 66.0966 416.905 68.051 416.294C70.0035 415.677 72.0027 415.218 74.029 414.922C76.1332 414.59 78.2721 414.54 80.3895 414.772C78.7829 416.171 76.9972 417.349 75.0795 418.276C73.2463 419.189 71.3425 419.952 69.3865 420.558C67.4326 421.171 65.4333 421.628 63.4072 421.924C61.3036 422.255 59.1657 422.307 57.0484 422.08Z" fill="#8B9D36"/>
<path d="M53.1245 429.741C54.8938 428.043 56.853 426.554 58.9633 425.305C61.0006 424.072 63.1197 422.978 65.3059 422.033C67.4892 421.082 69.736 420.283 72.03 419.642C74.3855 418.957 76.8128 418.549 79.2628 418.426C77.4968 420.129 75.5382 421.619 73.4266 422.868C71.3897 424.102 69.2696 425.194 67.0814 426.134C64.8962 427.081 62.6489 427.878 60.3551 428.519C57.9999 429.203 55.5736 429.613 53.1245 429.741ZM75.3886 388.224C75.0621 385.84 75.1209 383.419 75.5628 381.054C75.9517 378.824 76.5638 376.639 77.3899 374.531C78.2081 372.421 79.2399 370.4 80.469 368.499C81.7502 366.461 83.3539 364.644 85.2177 363.12C85.5514 365.504 85.4954 367.927 85.0518 370.293C84.6636 372.523 84.0488 374.707 83.2168 376.812C82.3923 378.921 81.3579 380.94 80.1294 382.842C78.8477 384.878 77.247 386.695 75.3886 388.224Z" fill="#8B9D36"/>
<path d="M49.3381 432.557L48.4449 432.541C48.4842 430.099 49.5447 372.505 61.0674 354.264L61.8229 354.742C50.4341 372.772 49.3477 431.961 49.3381 432.557Z" fill="#50661A"/>
<path d="M57.7431 362.491C58.0975 359.819 58.1873 357.119 58.0112 354.429C57.8625 351.808 57.5716 349.198 57.1397 346.608C56.7224 344.029 56.1544 341.476 55.4864 338.944C54.8194 336.395 53.9768 333.943 53.0765 331.331C52.8222 331.979 52.6291 332.65 52.4998 333.335C52.3556 334.007 52.2504 334.687 52.1846 335.372C52.045 336.715 51.9844 338.065 52.003 339.415C52.0425 342.071 52.2858 344.72 52.7308 347.339C53.1639 349.95 53.7766 352.528 54.5644 355.054C55.3434 357.644 56.4096 360.138 57.7431 362.491ZM71.9061 326.02C69.9256 327.93 68.2273 330.112 66.8623 332.5C65.5327 334.765 64.4017 337.142 63.4819 339.602C62.5537 342.059 61.8437 344.594 61.3601 347.175C60.8194 349.874 60.6703 352.636 60.9174 355.377C62.9036 353.472 64.605 351.291 65.9691 348.9C67.2998 346.636 68.4283 344.258 69.3416 341.795C70.2635 339.335 70.9707 336.8 71.4555 334.219C71.9945 331.521 72.1462 328.761 71.9061 326.02ZM81.4016 340.699C79.0519 342.586 76.8328 344.631 74.7595 346.818C72.7067 348.946 70.7478 351.121 68.8313 353.308L63.137 359.842C62.1818 360.912 61.2165 361.966 60.1967 362.965C59.189 364.023 58.0153 364.91 56.7219 365.59C57.5108 365.728 58.3192 365.707 59.1 365.529C59.8875 365.372 60.6556 365.131 61.3911 364.809C62.8306 364.176 64.1986 363.392 65.4718 362.469C67.9429 360.66 70.1982 358.574 72.1938 356.251C74.1787 353.976 75.9657 351.535 77.5353 348.955C79.151 346.368 80.4491 343.596 81.4016 340.699ZM81.4016 355.377C78.5051 356.823 75.7421 358.522 73.1446 360.455C70.5744 362.334 68.1017 364.343 65.7364 366.475C63.3659 368.601 61.1075 370.848 58.9703 373.209C56.7756 375.589 54.7981 378.161 53.0613 380.894C55.9607 379.452 58.7255 377.754 61.3226 375.821C63.8934 373.942 66.3649 371.931 68.7269 369.796C71.0941 367.666 73.3509 365.417 75.4886 363.058C77.682 360.677 79.6607 358.106 81.4016 355.377ZM80.4359 366.894C77.5179 368.252 74.7262 369.866 72.0938 371.717C69.4901 373.517 66.9806 375.449 64.5751 377.505C62.1648 379.556 59.8634 381.732 57.6802 384.023C55.439 386.334 53.41 388.841 51.6175 391.514C54.5384 390.161 57.3318 388.549 59.964 386.695C62.568 384.897 65.0762 382.963 67.4783 380.903C69.8854 378.848 72.1855 376.671 74.3693 374.38C76.6093 372.069 78.6395 369.564 80.4359 366.894ZM79.7924 379.204C76.8885 380.296 74.0914 381.653 71.4363 383.257C68.8154 384.811 66.2794 386.503 63.839 388.327C61.3941 390.144 59.0497 392.093 56.8162 394.165C54.522 396.254 52.4274 398.552 50.5597 401.03C53.4658 399.943 56.2644 398.588 58.9192 396.982C61.5405 395.429 64.0755 393.735 66.513 391.907C68.9549 390.086 71.2979 388.135 73.5319 386.064C75.8249 383.974 77.9206 381.678 79.7924 379.204ZM80.4359 388.135C77.3979 389.357 74.4724 390.842 71.693 392.574C68.9444 394.255 66.2824 396.073 63.7172 398.022C61.1472 399.966 58.6787 402.039 56.3216 404.236C53.9058 406.447 51.6903 408.867 49.7009 411.469C52.7413 410.251 55.6681 408.768 58.4472 407.035C61.1963 405.355 63.8573 403.535 66.4196 401.581C68.9865 399.634 71.4535 397.559 73.8112 395.363C76.2258 393.151 78.4424 390.733 80.4359 388.135ZM82.6891 396.503C79.526 397.974 76.4719 399.669 73.5503 401.574C70.6488 403.432 67.8416 405.395 65.1047 407.444C62.3599 409.481 59.6912 411.605 57.0695 413.8C54.4208 415.976 51.9188 418.242 49.1784 420.486C50.9381 420.197 52.6563 419.695 54.2955 418.993C55.9185 418.314 57.5046 417.551 59.0472 416.706C62.0814 415.008 64.9987 413.11 67.7796 411.024C70.5505 408.947 73.1992 406.712 75.7126 404.33C78.2736 401.941 80.6089 399.321 82.6891 396.503ZM85.4251 405.193C82.0068 406.521 78.6901 408.097 75.5013 409.908C72.3322 411.673 69.2565 413.569 66.2515 415.564C63.2461 417.558 60.3132 419.656 57.4528 421.856C56.023 422.959 54.6069 424.082 53.2045 425.224C51.8479 426.427 50.4067 427.53 48.892 428.526C49.8419 428.527 50.7848 428.365 51.68 428.047C52.5785 427.781 53.4507 427.458 54.3134 427.121C56.034 426.438 57.6964 425.657 59.3271 424.829C62.5639 423.162 65.7023 421.311 68.727 419.284C71.7512 417.273 74.6714 415.109 77.4764 412.801C80.3316 410.489 82.9903 407.944 85.4251 405.193ZM54.9691 372.714C54.8238 369.811 54.3942 366.929 53.6864 364.109C53.0182 361.341 52.1923 358.613 51.2128 355.939C50.2403 353.263 49.1132 350.645 47.8372 348.099C46.5595 345.487 45.026 343.008 43.2592 340.699C43.3993 343.603 43.8269 346.486 44.5358 349.306C45.2036 352.074 46.0315 354.802 47.0156 357.474C47.9926 360.149 49.1215 362.766 50.3968 365.312C51.6753 367.923 53.2067 370.402 54.9691 372.714ZM53.0613 382.763C52.513 379.875 51.6857 377.047 50.5911 374.318C49.5425 371.635 48.3432 369.013 46.999 366.465C45.6614 363.913 44.1784 361.441 42.5572 359.059C40.9261 356.613 39.059 354.332 36.9826 352.25C37.5259 355.14 38.3513 357.969 39.447 360.697C40.4952 363.381 41.6965 366.002 43.0449 368.548C44.3869 371.097 45.8715 373.569 47.4919 375.951C49.1239 378.396 50.9891 380.677 53.0613 382.763ZM51.6175 392.48C50.677 389.548 49.4666 386.71 48.0018 384.002C46.5866 381.331 45.0288 378.738 43.3352 376.235C41.6476 373.727 39.8241 371.313 37.8728 369.004C35.9069 366.634 33.7229 364.453 31.3494 362.491C32.2851 365.425 33.494 368.265 34.9604 370.972C36.3747 373.644 37.9343 376.236 39.6322 378.737C41.3236 381.242 43.1487 383.654 45.0994 385.963C47.0659 388.332 49.248 390.514 51.6175 392.48ZM50.5597 403.201C49.0848 400.032 47.3535 396.989 45.3832 394.102C43.4592 391.231 41.4063 388.465 39.2244 385.805C37.0498 383.14 34.7492 380.577 32.3226 378.117C29.8863 375.61 27.2461 373.309 24.4293 371.239C25.8984 374.411 27.6282 377.455 29.6009 380.341C31.5249 383.212 33.5793 385.976 35.7641 388.634C37.9439 391.296 40.2461 393.857 42.6707 396.318C45.1083 398.824 47.7468 401.125 50.5597 403.201ZM49.7009 414.317C47.8928 411.305 45.8427 408.445 43.571 405.765C41.347 403.095 39.0057 400.544 36.5469 398.112C34.0951 395.673 31.5284 393.349 28.847 391.14C26.1513 388.886 23.2741 386.858 20.2447 385.078C22.0476 388.094 24.0964 390.956 26.3703 393.635C28.5942 396.304 30.9369 398.853 33.3983 401.283C35.8549 403.718 38.423 406.04 41.1025 408.25C43.7994 410.502 46.675 412.531 49.7009 414.317ZM49.1783 421.446C47.1726 418.847 44.9442 416.427 42.5183 414.215C40.1493 412.019 37.6712 409.944 35.0935 407.997C32.5205 406.043 29.8491 404.223 27.0897 402.544C24.3002 400.811 21.3633 399.329 18.3132 398.112C20.3151 400.715 22.5426 403.136 24.9697 405.347C27.3381 407.544 29.8175 409.618 32.3981 411.561C34.9742 413.51 37.6468 415.329 40.4057 417.009C43.1955 418.74 46.1308 420.224 49.1783 421.446ZM48.8919 427.4C46.4858 425.028 43.8829 422.864 41.1113 420.931C38.3905 418.997 35.587 417.208 32.7006 415.564C29.8188 413.911 26.8563 412.4 23.8133 411.029C20.7425 409.618 17.5563 408.473 14.2898 407.606C16.6926 409.983 19.2948 412.148 22.0678 414.08C24.7886 416.014 27.593 417.801 30.4811 419.442C33.366 421.09 36.3295 422.599 39.3715 423.971C42.4425 425.381 45.6273 426.528 48.8919 427.4ZM49.1142 431.262C46.2272 429.27 43.1828 427.517 40.0111 426.019C36.8878 424.511 33.7034 423.168 30.4671 421.966C27.2312 420.762 23.9387 419.711 20.5896 418.812C17.2082 417.878 13.7553 417.225 10.2663 416.859C13.1501 418.857 16.1941 420.612 19.3672 422.108C22.4909 423.615 25.673 424.964 28.9134 426.155C32.1515 427.353 35.4419 428.41 38.7931 429.303C42.1746 430.235 45.6263 430.89 49.1142 431.262Z" fill="#50661A"/>
<path d="M47.5499 430.954C46.6691 429.486 25.9246 394.921 22.5689 385.972L23.4067 385.659C26.7327 394.529 48.1007 430.135 48.3168 430.493L47.5499 430.954Z" fill="#5E7C24"/>
<path d="M30.1845 367.13C29.2801 369.367 28.5886 371.684 28.1191 374.052C27.6391 376.37 27.2867 378.713 27.0635 381.07C26.8343 383.426 26.7372 385.793 26.7727 388.16C26.7862 390.574 27.0303 392.981 27.5018 395.348C28.4106 393.112 29.1038 390.794 29.572 388.426C30.0528 386.108 30.4037 383.765 30.6229 381.408C30.8478 379.051 30.9433 376.684 30.9088 374.317C30.894 371.904 30.6515 369.497 30.1845 367.13ZM38.0709 377.911C36.9696 379.995 36.072 382.181 35.3907 384.438C34.7037 386.643 34.1415 388.886 33.7069 391.155C33.2664 393.423 32.9561 395.715 32.7774 398.018C32.5733 400.367 32.5991 402.73 32.8542 405.074C33.9596 402.991 34.8589 400.806 35.5392 398.548C36.2265 396.342 36.7871 394.099 37.2182 391.829C37.6549 389.561 37.9636 387.269 38.1429 384.966C38.3457 382.617 38.3216 380.255 38.0709 377.911ZM42.4161 390.463C41.4463 392.4 40.6816 394.433 40.1346 396.529C39.5822 398.571 39.1559 400.645 38.858 402.739C38.5544 404.832 38.3819 406.942 38.3415 409.057C38.2788 411.223 38.4456 413.389 38.8392 415.52C39.8134 413.584 40.5797 411.551 41.1256 409.454C41.6787 407.413 42.1034 405.339 42.3973 403.244C42.6972 401.15 42.868 399.04 42.909 396.925C42.9706 394.76 42.8054 392.594 42.4161 390.463ZM47.8881 402.991C46.9145 404.614 46.1378 406.347 45.5747 408.154C45.0114 409.899 44.5725 411.682 44.2615 413.489C43.9445 415.295 43.7585 417.122 43.7049 418.955C43.6282 420.846 43.7803 422.74 44.1576 424.595C45.1354 422.974 45.9138 421.241 46.4758 419.433C47.0399 417.688 47.4773 415.905 47.7847 414.097C48.0975 412.29 48.2819 410.464 48.3365 408.631C48.4118 406.74 48.2613 404.847 47.8881 402.991ZM52.7162 410.822C51.7229 412.229 50.9029 413.751 50.274 415.355C49.6577 416.886 49.1448 418.457 48.7386 420.057C48.3362 421.645 48.0266 423.255 47.8113 424.879C47.7109 425.698 47.6188 426.512 47.5577 427.341C47.5261 428.187 47.4359 429.029 47.2879 429.862C47.4944 429.752 47.6928 429.626 47.8816 429.488L48.3636 429.005C48.6708 428.675 48.9527 428.323 49.2066 427.95C49.696 427.233 50.1294 426.479 50.5028 425.695C51.2282 424.171 51.798 422.577 52.2037 420.939C52.6175 419.315 52.8854 417.657 53.0044 415.986C53.1488 414.26 53.0518 412.522 52.7162 410.822ZM25.4953 391.492C23.8727 389.713 22.047 388.13 20.0555 386.776C18.1369 385.443 16.1278 384.245 14.043 383.191C11.9612 382.131 9.80704 381.219 7.59654 380.463C5.32602 379.658 2.96803 379.126 0.572021 378.877C2.19101 380.66 4.016 382.245 6.0087 383.598C7.92694 384.932 9.93716 386.128 12.0243 387.178C14.1082 388.234 16.2632 389.144 18.4734 389.901C20.7437 390.704 23.1005 391.238 25.4953 391.492ZM30.8386 401.471C28.7636 399.775 26.5146 398.303 24.1293 397.08C21.8128 395.865 19.423 394.795 16.9738 393.876C14.5273 392.95 12.0246 392.18 9.48084 391.57C6.88032 390.918 4.21742 390.547 1.53777 390.463C3.60979 392.164 5.8582 393.638 8.24447 394.86C10.5605 396.076 12.9512 397.144 15.4021 398.059C17.8505 398.98 20.3537 399.748 22.8973 400.359C25.4976 401.009 28.1596 401.382 30.8386 401.471ZM37.1283 412.563C35.2808 410.924 33.2516 409.501 31.0804 408.324C28.9821 407.158 26.8074 406.137 24.571 405.265C22.3374 404.387 20.0459 403.664 17.7129 403.101C15.3174 402.495 12.8598 402.17 10.3893 402.13C12.2338 403.774 14.2626 405.198 16.435 406.375C18.5328 407.541 20.7085 408.561 22.9465 409.428C25.182 410.301 27.4741 411.023 29.807 411.587C32.2021 412.191 34.6585 412.518 37.1283 412.563ZM42.0992 421.101C40.4898 419.707 38.7038 418.531 36.7873 417.603C34.9539 416.691 33.051 415.926 31.0965 415.315C29.144 414.697 27.1449 414.239 25.1185 413.943C23.0144 413.611 20.8754 413.561 18.758 413.793C20.3647 415.192 22.1504 416.37 24.0681 417.297C25.9012 418.21 27.8051 418.973 29.761 419.579C31.7149 420.192 33.7143 420.649 35.7404 420.945C37.844 421.276 39.9819 421.328 42.0992 421.101Z" fill="#5E7C24"/>
<path d="M46.0231 428.762C44.2538 427.064 42.2946 425.575 40.1843 424.326C38.147 423.092 36.0279 421.999 33.8417 421.054C31.6584 420.102 29.4116 419.303 27.1176 418.663C24.7622 417.978 22.3349 417.57 19.8849 417.447C21.6508 419.149 23.6095 420.64 25.721 421.889C27.7579 423.123 29.878 424.214 32.0662 425.155C34.2514 426.102 36.4988 426.899 38.7925 427.54C41.1477 428.224 43.574 428.634 46.0231 428.762ZM23.759 387.245C24.0855 384.861 24.0267 382.44 23.5848 380.075C23.1959 377.845 22.5838 375.66 21.7578 373.552C20.9395 371.442 19.9078 369.421 18.6786 367.52C17.3975 365.482 15.7937 363.665 13.93 362.141C13.5962 364.525 13.6522 366.948 14.0958 369.314C14.484 371.544 15.0989 373.728 15.9308 375.833C16.7553 377.941 17.7897 379.961 19.0182 381.863C20.3 383.899 21.9006 385.716 23.759 387.245Z" fill="#5E7C24"/>
<path d="M185.222 143.02C199.796 143.02 211.61 131.207 211.61 116.635C211.61 102.063 199.796 90.2505 185.222 90.2505C170.649 90.2505 158.834 102.063 158.834 116.635C158.834 131.207 170.649 143.02 185.222 143.02Z" fill="#F2F2F2"/>
<path d="M490.909 431.577H1.27332V433.534H490.909V431.577Z" fill="#935B50"/>
<path d="M85.3397 432.17L101.99 350.231H121.338L91.5621 432.17H85.3397Z" fill="#935B50"/>
<path d="M400.368 350.231L418.324 432.17H409.474L380.36 350.231H400.368Z" fill="#935B50"/>
<path d="M410.152 329.787H95.8714C90.2253 329.787 85.6482 334.364 85.6482 340.009C85.6482 345.655 90.2253 350.231 95.8714 350.231H410.152C415.799 350.231 420.376 345.655 420.376 340.009C420.376 334.364 415.799 329.787 410.152 329.787Z" fill="#C38F86"/>
<path d="M222.851 404.227L221.447 418.22L245.75 430.098L208.427 430.093L208.431 404.224L222.851 404.227Z" fill="#F9977A"/>
<path d="M267.613 404.234L266.209 418.228L290.512 430.107L253.189 430.1L253.194 404.232L267.613 404.234Z" fill="#F9977A"/>
<path d="M294.259 431.379V431.293C294.259 430.639 294.077 429.997 293.734 429.44C293.391 428.883 292.9 428.432 292.315 428.137L267.09 415.42C266.843 415.296 266.56 415.262 266.291 415.325C266.022 415.388 265.783 415.544 265.617 415.764L260.685 422.326C260.51 422.559 260.255 422.718 259.969 422.774C259.683 422.83 259.387 422.778 259.137 422.628L253.35 419.155C253.171 419.048 252.967 418.99 252.758 418.987C252.55 418.984 252.345 419.037 252.163 419.14C251.982 419.242 251.831 419.391 251.726 419.571C251.621 419.752 251.565 419.956 251.565 420.165L251.563 431.372C251.563 431.526 251.594 431.68 251.653 431.823C251.712 431.965 251.799 432.095 251.908 432.205C252.018 432.314 252.148 432.401 252.29 432.46C252.433 432.519 252.587 432.55 252.741 432.55L293.08 432.557C293.235 432.557 293.388 432.526 293.531 432.467C293.674 432.408 293.804 432.321 293.913 432.212C294.023 432.102 294.11 431.973 294.169 431.83C294.228 431.687 294.258 431.534 294.259 431.379ZM249.496 431.371V431.286C249.496 430.632 249.314 429.99 248.971 429.433C248.628 428.876 248.137 428.424 247.553 428.13L222.327 415.413C222.08 415.289 221.797 415.255 221.528 415.318C221.259 415.381 221.021 415.536 220.855 415.757L215.922 422.318C215.747 422.551 215.492 422.711 215.206 422.767C214.921 422.823 214.624 422.771 214.374 422.621L208.587 419.147C208.408 419.04 208.204 418.982 207.996 418.98C207.787 418.977 207.582 419.03 207.4 419.132C207.219 419.235 207.068 419.384 206.963 419.564C206.858 419.744 206.803 419.949 206.803 420.157L206.801 431.364C206.801 431.519 206.831 431.672 206.89 431.815C206.949 431.958 207.036 432.088 207.146 432.197C207.255 432.307 207.385 432.393 207.528 432.453C207.671 432.512 207.824 432.542 207.979 432.542L248.317 432.549C248.472 432.549 248.625 432.519 248.768 432.46C248.911 432.4 249.041 432.314 249.151 432.204C249.26 432.095 249.347 431.965 249.406 431.822C249.465 431.679 249.496 431.526 249.496 431.371Z" fill="#F2F2F2"/>
<path d="M270.099 230.906C270.099 230.906 272.331 267.136 272.33 275.654L272.321 325.916C272.321 327.985 272.219 330.051 272.016 332.114L273.02 407.696C272.948 408.43 272.604 409.111 272.058 409.606C271.511 410.101 270.799 410.376 270.062 410.376C266.798 412.531 262.884 413.475 258.996 413.045C256.467 412.724 254.049 411.808 251.941 410.372C251.173 410.023 248.969 408.943 248.969 407.4C248.969 407.328 248.972 407.256 248.977 407.184L246.099 343.372C246.527 337.509 246.133 331.614 244.93 325.859L226.198 236.248L270.099 230.906Z" fill="#002D69"/>
<path d="M214.235 410.765C211.456 410.189 207.831 409.071 206.98 408.221C206.704 407.945 206.485 407.617 206.335 407.257C206.186 406.896 206.11 406.509 206.11 406.119L206.119 354.282C206.12 344.153 207.262 334.056 209.521 324.181C209.925 322.411 210.087 320.594 210.001 318.78C209.367 305.432 207.003 246.893 213.661 236.246L256.236 233.11L225.852 407.581C225.608 409.009 219.36 411.827 214.235 410.765Z" fill="#002D69"/>
<path d="M221.513 300.084L221.74 299.726C214.53 295.146 212.831 281.471 212.815 281.334L212.394 281.383C212.41 281.523 214.131 295.396 221.513 300.084Z" fill="#B02336"/>
<path d="M237.389 243.574C261.685 243.578 270.674 236.248 270.787 236.152L270.512 235.829C270.368 235.949 255.637 247.921 212.645 241.001L212.577 241.42C220.777 242.795 229.074 243.515 237.389 243.574Z" fill="#065082"/>
<path d="M254.459 241.904L242.223 313.872L242.642 313.943L254.878 241.975L254.459 241.904Z" fill="#B02336"/>
<path d="M251.541 259.75L251.796 259.41L248.6 257.001L250.98 242.596L250.563 242.525L248.141 257.186L251.541 259.75Z" fill="#B02336"/>
<path d="M221.506 305.786L221.745 305.437C215.915 301.445 212.831 293.588 212.8 293.509L212.404 293.662C212.435 293.742 215.565 301.719 221.506 305.786ZM259.971 361.077L260.198 360.719C252.987 356.138 251.288 342.463 251.272 342.326L250.851 342.375C250.867 342.515 252.588 356.389 259.971 361.077ZM259.963 366.778L260.203 366.429C254.37 362.435 251.288 354.58 251.257 354.501L250.861 354.655C250.892 354.734 254.023 362.712 259.963 366.778Z" fill="#B02336"/>
<path d="M259.516 106.842L258.876 116.104C258.668 119.861 258.859 123.629 259.446 127.345C260.12 132.03 253.934 139.428 251.68 139.52V148.836C252.258 155.255 248.029 160.457 243.571 161.053C238.456 161.736 232.164 156.474 232.504 148.836V127.047C232.504 127.047 224.669 125.604 229.205 117.872C231.901 113.359 233.491 108.273 233.844 103.028L242.298 96.6371L259.516 106.842Z" fill="#F9977A"/>
<path d="M197.966 195.486C197.966 195.486 197.011 175.831 204.01 161.284C205.887 157.388 208.947 154.185 212.754 152.133C217.144 149.765 224.677 145.626 232.504 143.545C232.438 149.326 237.019 150.471 242.505 150.358C247.639 150.252 251.449 150.379 251.68 144.983C263.832 147.713 269.817 152.553 271.904 156.965C276.054 165.735 276.678 184.123 276.678 184.123L270.254 185.396C270.254 185.396 271.865 233.913 270.592 239.146C264.312 240.576 257.773 245.426 249.969 246.118C235.387 247.412 222.035 242.87 211.786 241.336C213.121 235.375 214.337 229.004 215.351 222.25C216.708 213.207 217.61 204.101 218.053 194.967L197.966 195.486Z" fill="#007DFE"/>
<path d="M240.34 110.828C240.213 110.828 240.091 110.786 239.991 110.709C239.89 110.632 239.818 110.524 239.786 110.402C239.754 110.28 239.762 110.151 239.811 110.034C239.86 109.918 239.946 109.82 240.056 109.758C241.085 109.244 242.219 108.976 243.369 108.974C244.519 108.972 245.654 109.237 246.685 109.746C246.819 109.816 246.92 109.937 246.965 110.081C247.011 110.225 246.998 110.382 246.929 110.516C246.859 110.65 246.74 110.752 246.596 110.799C246.452 110.845 246.295 110.833 246.16 110.764C246.131 110.751 243.195 109.281 240.623 110.753C240.537 110.802 240.439 110.828 240.34 110.828ZM251.681 110.828C251.555 110.828 251.432 110.787 251.331 110.71C251.231 110.633 251.159 110.525 251.127 110.403C251.094 110.28 251.103 110.151 251.152 110.034C251.2 109.918 251.286 109.82 251.396 109.758C252.425 109.244 253.559 108.976 254.709 108.974C255.859 108.972 256.994 109.236 258.025 109.746C258.092 109.781 258.151 109.828 258.2 109.885C258.248 109.943 258.285 110.009 258.308 110.081C258.331 110.152 258.34 110.227 258.334 110.302C258.328 110.377 258.307 110.45 258.272 110.517C258.238 110.584 258.191 110.643 258.133 110.692C258.076 110.74 258.01 110.777 257.938 110.8C257.867 110.823 257.791 110.832 257.716 110.826C257.641 110.819 257.569 110.799 257.502 110.764C256.639 110.347 255.693 110.129 254.734 110.127C253.775 110.125 252.829 110.339 251.964 110.753C251.878 110.802 251.78 110.828 251.681 110.828ZM255.289 118.354C255.734 118.338 256.156 118.15 256.465 117.83C256.775 117.509 256.948 117.081 256.948 116.636C256.948 116.19 256.775 115.762 256.465 115.441C256.156 115.121 255.734 114.933 255.289 114.918C254.843 114.933 254.421 115.121 254.112 115.441C253.802 115.762 253.629 116.19 253.629 116.636C253.629 117.081 253.802 117.509 254.112 117.83C254.421 118.15 254.843 118.338 255.289 118.354ZM243.536 118.251C243.981 118.235 244.403 118.047 244.712 117.727C245.022 117.406 245.195 116.978 245.195 116.532C245.195 116.087 245.022 115.659 244.712 115.338C244.403 115.018 243.981 114.83 243.536 114.814C243.09 114.83 242.668 115.018 242.359 115.338C242.049 115.659 241.876 116.087 241.876 116.532C241.876 116.978 242.049 117.406 242.359 117.727C242.668 118.047 243.09 118.235 243.536 118.251Z" fill="#1E1D22"/>
<path d="M250.237 114.973C251.3 116.385 252.108 117.972 252.624 119.662C252.904 120.527 253.013 121.438 252.943 122.344C252.903 122.823 252.716 123.277 252.409 123.647C252.249 123.814 252.056 123.947 251.841 124.035C251.627 124.124 251.397 124.167 251.165 124.161C251.571 124.054 251.922 123.798 252.148 123.445C252.338 123.096 252.431 122.703 252.419 122.307C252.386 121.472 252.237 120.646 251.977 119.852C251.496 118.218 250.831 116.625 250.237 114.973ZM251.68 139.52C251.68 139.52 245.494 139.204 242.505 136.373C242.505 136.373 246.319 143.953 251.68 144.984V139.52Z" fill="#DD765E"/>
<path d="M264.052 104.059C264.052 104.059 263.949 99.8327 256.526 97.9772C249.103 96.1217 247.659 91.9984 243.381 93.1323C240.618 93.9926 238.187 95.6846 236.422 97.9772C236.422 97.9772 222.985 95.9217 229.497 117.36C229.497 117.36 234.36 123.027 234.875 117.975C235.391 112.924 236.525 104.265 239.308 101.997C242.092 99.7296 246.422 101.997 248.072 103.234C249.721 104.471 260.031 111.79 261.062 111.172C262.093 110.553 266.217 109.316 264.052 104.059Z" fill="#1E1D22"/>
<path d="M232.504 143.545L242.505 150.358L237.504 157.231L226.639 145.468L232.504 143.545Z" fill="#002D69"/>
<path d="M242.505 150.358L251.681 144.984L255.891 146.083L246.193 156.174L242.505 150.358Z" fill="#002D69"/>
<path d="M226.64 145.468C228.547 147.34 230.44 149.224 232.289 151.149L235.075 154.026C236.01 154.979 236.907 155.967 237.825 156.935L237.151 156.975C238.81 154.677 240.427 152.35 242.12 150.078L242.54 149.515L242.907 150.103L246.55 155.948L245.889 155.882C247.52 154.214 249.195 152.588 250.845 150.939C252.507 149.301 254.189 147.683 255.891 146.083C254.363 147.849 252.812 149.594 251.24 151.318C249.657 153.033 248.099 154.77 246.498 156.466L246.131 156.855L245.837 156.4L242.103 150.613L242.889 150.638C241.249 152.948 239.532 155.203 237.858 157.489L237.539 157.924L237.183 157.528C236.291 156.536 235.377 155.564 234.501 154.556L231.854 151.551C230.082 149.555 228.354 147.518 226.64 145.468Z" fill="#002D69"/>
<path d="M242.505 150.358C244.461 157.86 246.014 165.463 247.394 173.093C248.761 180.728 249.854 188.407 250.672 196.131C251.497 203.852 251.899 211.612 251.876 219.377C251.92 227.147 251.094 234.897 249.415 242.483L250.299 236.742C250.564 234.828 250.637 232.888 250.815 230.965C251.03 229.044 251.016 227.105 251.082 225.174L251.16 222.277C251.187 221.311 251.133 220.344 251.123 219.377C251.088 211.645 250.5 203.922 249.699 196.231C248.972 188.528 247.86 180.864 246.654 173.218C246.064 169.392 245.402 165.577 244.7 161.769C244.029 157.955 243.285 154.154 242.505 150.358ZM270.254 185.396C269.932 183.91 269.695 182.415 269.471 180.918C269.239 179.422 269.068 177.92 268.897 176.418C268.744 174.913 268.594 173.409 268.503 171.898C268.405 170.388 268.319 168.876 268.321 167.355C268.644 168.841 268.88 170.337 269.104 171.834C269.336 173.329 269.508 174.831 269.678 176.334C269.829 177.838 269.98 179.343 270.07 180.854C270.168 182.364 270.254 183.876 270.254 185.396Z" fill="#5E7C24"/>
<path d="M271.15 180.068H288.597L274.828 206.093L257.569 206.566L271.15 180.068Z" fill="#935B50"/>
<path d="M218.054 194.968V203.643L250.496 193.459C250.496 193.459 253.231 186.575 262.285 187.518L263.322 189.31C263.322 189.31 275.582 189.404 275.488 191.573L274.828 192.422C274.828 192.422 278.507 192.61 275.489 195.156C275.489 195.156 276.525 197.137 273.319 198.08C270.112 199.023 264.36 200.531 264.36 200.531C264.886 200.942 265.502 201.224 266.156 201.355C266.811 201.486 267.488 201.462 268.132 201.286C269.233 200.914 270.372 200.661 271.527 200.531C271.669 200.718 271.764 200.937 271.802 201.169C271.841 201.401 271.822 201.639 271.748 201.862C271.673 202.085 271.546 202.287 271.376 202.449C271.206 202.612 270.999 202.73 270.773 202.794C268.981 203.455 266.717 204.775 265.68 204.775C264.643 204.775 254.834 206.284 254.834 206.284L215.358 223.795C213.698 224.532 211.882 224.847 210.071 224.714C208.26 224.581 206.51 224.004 204.975 223.033C203.441 222.062 202.17 220.728 201.274 219.148C200.379 217.568 199.887 215.792 199.842 213.977L199.38 195.345L218.054 194.968Z" fill="#F9977A"/>
<path d="M279.355 185.302C279.66 185.291 279.95 185.162 280.162 184.943C280.375 184.723 280.493 184.429 280.493 184.123C280.493 183.818 280.375 183.524 280.162 183.304C279.95 183.084 279.66 182.955 279.355 182.945C279.049 182.955 278.76 183.084 278.547 183.304C278.335 183.524 278.216 183.818 278.216 184.123C278.216 184.429 278.335 184.723 278.547 184.943C278.76 185.162 279.049 185.291 279.355 185.302Z" fill="#6C7FD8"/>
<path d="M286.452 184.123C286.452 184.123 288.838 186.503 283.41 193.318C283.462 193.771 283.413 194.23 283.266 194.662C283.119 195.094 282.879 195.489 282.561 195.816C282.82 196.146 282.961 196.553 282.961 196.972C282.961 197.391 282.82 197.797 282.561 198.127C282.736 198.564 282.768 199.045 282.654 199.502C282.54 199.959 282.284 200.369 281.925 200.673C281.925 200.673 281.783 203.572 279.873 203.572H276.161C276.161 203.572 274.986 202.681 276.161 202.016C276.161 202.016 273.367 201.875 275.489 199.895C275.489 199.895 274.215 198.48 276.125 197.066C275.956 196.863 275.835 196.625 275.771 196.37C275.707 196.114 275.701 195.847 275.754 195.589C275.807 195.331 275.918 195.088 276.078 194.878C276.238 194.669 276.443 194.498 276.678 194.378C278.334 194.125 279.974 193.771 281.587 193.318L286.452 184.123Z" fill="#F9977A"/>
<path d="M212.961 207.792C213.502 206.801 214.216 205.916 215.071 205.179C215.915 204.417 216.943 203.888 218.053 203.643C217.067 204.13 216.15 204.747 215.327 205.477C214.496 206.204 213.706 206.977 212.961 207.792ZM274.828 192.422C273.607 192.556 272.379 192.622 271.15 192.618C269.921 192.623 268.693 192.557 267.472 192.422C268.693 192.286 269.921 192.221 271.15 192.225C272.378 192.221 273.606 192.287 274.828 192.422ZM263.322 189.31C262.846 189.443 262.354 189.509 261.86 189.506C261.366 189.51 260.874 189.444 260.398 189.31C260.874 189.176 261.366 189.11 261.86 189.114C262.354 189.111 262.846 189.177 263.322 189.31ZM275.489 195.156C274.311 195.4 273.12 195.575 271.923 195.681C270.726 195.797 269.523 195.842 268.321 195.816C269.498 195.572 270.689 195.396 271.887 195.291C273.084 195.177 274.286 195.132 275.489 195.156ZM281.587 193.318C281.677 193.158 281.811 193.028 281.973 192.944C282.135 192.86 282.318 192.824 282.5 192.843C282.677 192.86 282.849 192.908 283.01 192.984C283.167 193.064 283.304 193.178 283.41 193.318C283.051 193.311 282.768 193.231 282.479 193.234C282.179 193.208 281.877 193.237 281.587 193.318ZM276.125 197.066C277.167 196.726 278.229 196.453 279.306 196.248C280.38 196.035 281.468 195.89 282.561 195.816C281.52 196.157 280.457 196.43 279.38 196.634C278.305 196.846 277.218 196.991 276.125 197.066ZM275.489 199.895C276.64 199.474 277.823 199.194 278.999 198.891L280.778 198.501C281.372 198.375 281.972 198.281 282.561 198.127C282.017 198.408 281.444 198.632 280.853 198.794C280.27 198.975 279.678 199.118 279.09 199.273C277.904 199.557 276.701 199.765 275.489 199.895ZM276.161 202.016C277.097 201.698 278.051 201.433 279.018 201.225C279.984 201.026 280.943 200.833 281.925 200.673C281.026 201.098 280.078 201.412 279.103 201.608C278.135 201.825 277.151 201.962 276.161 202.016Z" fill="#DD765E"/>
<path d="M218.054 194.967C217.983 193.458 218.018 191.952 218.078 190.447C218.132 188.941 218.264 187.441 218.414 185.942C218.585 184.445 218.785 182.949 219.083 181.468C219.339 179.975 219.76 178.515 220.34 177.115C220.195 177.858 220.052 178.589 219.964 179.334C219.854 180.074 219.76 180.817 219.68 181.561L219.195 186.027C219.026 187.516 218.874 189.007 218.678 190.496C218.492 191.987 218.306 193.478 218.054 194.967ZM242.731 166.103C243.112 166.09 243.473 165.929 243.737 165.655C244.002 165.381 244.15 165.015 244.15 164.634C244.15 164.253 244.002 163.887 243.737 163.613C243.473 163.339 243.112 163.178 242.731 163.165C242.35 163.178 241.99 163.339 241.725 163.613C241.46 163.887 241.312 164.253 241.312 164.634C241.312 165.015 241.46 165.381 241.725 165.655C241.99 165.929 242.35 166.09 242.731 166.103ZM244.494 177.383C244.875 177.369 245.235 177.209 245.5 176.935C245.765 176.661 245.913 176.295 245.913 175.914C245.913 175.533 245.765 175.167 245.5 174.893C245.235 174.619 244.875 174.458 244.494 174.445C244.113 174.458 243.752 174.619 243.488 174.893C243.223 175.167 243.075 175.533 243.075 175.914C243.075 176.295 243.223 176.661 243.488 176.935C243.752 177.209 244.113 177.369 244.494 177.383ZM246.609 189.367C246.99 189.354 247.351 189.194 247.615 188.92C247.88 188.646 248.028 188.28 248.028 187.899C248.028 187.518 247.88 187.152 247.615 186.878C247.351 186.604 246.99 186.443 246.609 186.43C246.228 186.443 245.868 186.604 245.603 186.878C245.338 187.152 245.19 187.518 245.19 187.899C245.19 188.28 245.338 188.646 245.603 188.92C245.868 189.194 246.228 189.354 246.609 189.367ZM248.724 215.804C249.105 215.791 249.466 215.631 249.73 215.357C249.995 215.083 250.143 214.717 250.143 214.336C250.143 213.955 249.995 213.589 249.73 213.315C249.466 213.041 249.105 212.88 248.724 212.867C248.343 212.88 247.983 213.041 247.718 213.315C247.453 213.589 247.305 213.955 247.305 214.336C247.305 214.717 247.453 215.083 247.718 215.357C247.983 215.631 248.343 215.791 248.724 215.804ZM248.724 228.494C249.105 228.481 249.466 228.32 249.73 228.046C249.995 227.772 250.143 227.406 250.143 227.025C250.143 226.644 249.995 226.278 249.73 226.004C249.466 225.73 249.105 225.57 248.724 225.557C248.343 225.57 247.983 225.73 247.718 226.004C247.453 226.278 247.305 226.644 247.305 227.025C247.305 227.406 247.453 227.772 247.718 228.046C247.983 228.32 248.343 228.481 248.724 228.494ZM247.314 239.421C247.695 239.408 248.056 239.248 248.32 238.974C248.585 238.7 248.733 238.334 248.733 237.953C248.733 237.572 248.585 237.206 248.32 236.932C248.056 236.658 247.695 236.497 247.314 236.484C246.933 236.497 246.573 236.658 246.308 236.932C246.043 237.206 245.895 237.572 245.895 237.953C245.895 238.334 246.043 238.7 246.308 238.974C246.573 239.248 246.933 239.408 247.314 239.421Z" fill="#292E33"/>
<path d="M247.436 128.102C247.436 128.102 250.486 130.903 253.038 128.964L247.436 128.102Z" fill="#DD2F22"/>
<path d="M241.673 126.045C243.078 126.339 244.543 126.075 245.757 125.308C246.57 124.808 247.487 124.505 248.437 124.423C248.94 124.383 249.446 124.41 249.941 124.502C250.487 124.594 251.013 124.779 251.497 125.047L250.742 124.837C250.983 124.832 251.224 124.83 251.465 124.836L250.709 125.047C250.967 124.903 251.238 124.783 251.519 124.69C251.762 124.607 252.012 124.544 252.265 124.5C252.761 124.408 253.267 124.381 253.77 124.419C254.72 124.501 255.639 124.804 256.451 125.305C256.995 125.672 257.61 125.922 258.256 126.037C259.009 126.176 259.78 126.179 260.534 126.045C259.927 126.728 259.133 127.219 258.251 127.458C257.368 127.697 256.435 127.672 255.566 127.389C254.964 127.206 254.335 127.131 253.706 127.166C253.425 127.19 253.146 127.238 252.873 127.309C252.739 127.344 252.612 127.394 252.487 127.435C252.397 127.47 252.308 127.509 252.222 127.554L251.465 127.764C251.224 127.77 250.983 127.768 250.742 127.763L249.986 127.553C249.899 127.509 249.811 127.469 249.72 127.435C249.595 127.393 249.469 127.34 249.334 127.307C249.061 127.236 248.782 127.187 248.501 127.163C247.872 127.127 247.242 127.202 246.639 127.385C245.771 127.668 244.838 127.692 243.957 127.454C243.075 127.216 242.281 126.727 241.673 126.045Z" fill="#1E1D22"/>
<path d="M417.332 207.644C460.84 207.644 496.111 172.378 496.111 128.875C496.111 85.372 460.84 50.1058 417.332 50.1058C373.823 50.1058 338.553 85.372 338.553 128.875C338.553 172.378 373.823 207.644 417.332 207.644Z" fill="#E5E5E5"/>
<path d="M433.821 189.203C444.229 189.203 452.667 180.766 452.667 170.359C452.667 159.952 444.229 151.515 433.821 151.515C423.412 151.515 414.975 159.952 414.975 170.359C414.975 180.766 423.412 189.203 433.821 189.203Z" fill="#616161"/>
<path d="M429.472 179.791L429.455 179.79C429.219 179.787 428.987 179.737 428.771 179.642C428.556 179.548 428.362 179.41 428.201 179.237L421.956 172.547C421.642 172.21 421.475 171.762 421.491 171.302C421.508 170.841 421.706 170.406 422.043 170.092C422.38 169.778 422.827 169.611 423.288 169.626C423.748 169.642 424.183 169.84 424.498 170.176L429.497 175.531L443.167 161.454C443.327 161.29 443.516 161.16 443.726 161.069C443.936 160.979 444.161 160.93 444.389 160.927C444.618 160.924 444.844 160.965 445.056 161.05C445.269 161.134 445.462 161.259 445.626 161.418C445.79 161.577 445.92 161.767 446.011 161.977C446.101 162.186 446.15 162.412 446.153 162.64C446.156 162.868 446.115 163.095 446.03 163.307C445.946 163.519 445.821 163.713 445.662 163.876L430.719 179.263C430.557 179.43 430.363 179.563 430.149 179.653C429.935 179.744 429.705 179.791 429.472 179.791Z" fill="#F2F2F2"/>
<path d="M461.279 91.6559H374.093V96.0005H461.279V91.6559Z" fill="white"/>
<path d="M461.7 102.201H374.513V106.546H461.7V102.201Z" fill="white"/>
<path d="M462.03 112.28H374.843V116.625H462.03V112.28Z" fill="white"/>
<path d="M462.03 122.807H374.843V127.152H462.03V122.807Z" fill="white"/>
<path d="M405.038 96.9291H297.701C295.002 96.9291 292.815 99.1165 292.815 101.815V170.693C292.815 173.391 295.002 175.578 297.701 175.578H405.038C407.736 175.578 409.924 173.391 409.924 170.693V101.815C409.924 99.1165 407.736 96.9291 405.038 96.9291Z" fill="#002D69"/>
<path d="M365.443 102.522H298.093V107.417H365.443V102.522Z" fill="#F2F2F2"/>
<path d="M292.815 130.349L409.924 130.349V111.503L292.815 111.503V130.349Z" fill="#F2F2F2"/>
<path d="M401.38 150.014H373.485V154.909H401.38V150.014Z" fill="#F2F2F2"/>
<path d="M387.432 162.63H360.166V167.525H387.432V162.63Z" fill="#F2F2F2"/>
<path d="M354.134 162.63H338.553V167.525H354.134V162.63Z" fill="#F2F2F2"/>
<path d="M368.458 150.014H352.877V154.909H368.458V150.014Z" fill="#F2F2F2"/>
<path d="M306.385 169.59C315.818 169.59 315.834 154.932 306.385 154.932C296.953 154.932 296.937 169.59 306.385 169.59ZM198.133 97.7895C198.133 97.5103 198.022 97.2426 197.825 97.0452C197.628 96.8477 197.36 96.7368 197.08 96.7368H173.363C173.084 96.7368 172.816 96.8477 172.619 97.0452C172.421 97.2426 172.31 97.5103 172.31 97.7895V98.4212C172.31 98.7004 172.421 98.9681 172.619 99.1656C172.816 99.363 173.084 99.4739 173.363 99.4739H182.069C183.72 99.4762 185.328 100.001 186.662 100.974C187.995 101.947 188.987 103.318 189.493 104.889C189.539 105.045 189.547 105.211 189.517 105.371C189.487 105.531 189.42 105.683 189.321 105.813C189.223 105.943 189.095 106.048 188.948 106.119C188.802 106.191 188.64 106.227 188.477 106.225H173.363C173.084 106.225 172.816 106.336 172.619 106.534C172.421 106.731 172.31 106.999 172.31 107.278V107.91C172.31 108.189 172.421 108.457 172.619 108.654C172.816 108.852 173.084 108.962 173.363 108.962H188.228C188.405 108.963 188.579 109.008 188.734 109.093C188.889 109.178 189.021 109.3 189.116 109.449C189.212 109.598 189.269 109.768 189.282 109.945C189.295 110.121 189.263 110.298 189.19 110.459C188.575 111.833 187.575 113 186.312 113.819C185.048 114.638 183.575 115.074 182.069 115.075H174.732C174.453 115.075 174.185 115.186 173.987 115.384C173.79 115.581 173.679 115.849 173.679 116.128V117.447C173.679 117.678 173.755 117.903 173.895 118.086L187.343 135.697C187.513 135.919 187.763 136.065 188.04 136.102C188.317 136.139 188.597 136.065 188.819 135.895L189.321 135.512C189.431 135.428 189.523 135.324 189.593 135.204C189.662 135.084 189.707 134.952 189.726 134.815C189.744 134.678 189.735 134.539 189.7 134.405C189.664 134.272 189.603 134.146 189.519 134.036L178.42 119.504C178.301 119.348 178.228 119.162 178.209 118.966C178.19 118.771 178.226 118.574 178.313 118.398C178.4 118.222 178.535 118.074 178.702 117.971C178.868 117.867 179.061 117.812 179.257 117.812H183.697C183.792 117.812 183.887 117.801 183.98 117.778C185.983 117.352 187.826 116.373 189.3 114.951C190.773 113.529 191.818 111.722 192.315 109.736C192.373 109.512 192.504 109.314 192.688 109.174C192.872 109.033 193.098 108.959 193.329 108.962H197.08C197.36 108.962 197.628 108.851 197.825 108.654C198.022 108.457 198.133 108.189 198.133 107.91V107.278C198.133 106.999 198.022 106.731 197.825 106.534C197.628 106.336 197.36 106.225 197.08 106.225H193.475C193.234 106.228 192.999 106.147 192.811 105.995C192.623 105.843 192.494 105.63 192.447 105.394C192.07 103.279 191.049 101.333 189.524 99.8206C189.402 99.698 189.269 99.5895 189.142 99.4738H197.08C197.36 99.4738 197.628 99.3629 197.825 99.1654C198.022 98.968 198.133 98.7002 198.133 98.421V97.7895Z" fill="#90BAE7"/>
</svg>
